<svg width="26" height="36" viewBox="0 0 26 36" fill="none" xmlns="http://www.w3.org/2000/svg">
<path d="M0.334906 3.15682C0.334906 3.15682 2.67886 0 6.56323 0C10.4476 0 14.3323 3.08879 14.3323 7.65667C14.3323 15.1116 8.23776 15.4474 8.23776 24.5817C8.23776 32.1711 12.9943 35.9984 12.9943 35.9984C12.9943 35.9984 0 36.2682 0 22.9028C0 15.3133 3.81731 13.6341 3.81731 7.72392C3.81731 4.02989 0.334906 3.15682 0.334906 3.15682Z" fill="url(#paint0_linear_119_209)"/>
<path d="M23.9775 21.7248C23.453 20.7038 22.6512 19.6831 21.572 18.6626C20.4928 17.6421 19.0124 16.8071 17.1309 16.1575V16.111C18.1453 16.1748 19.1638 16.1124 20.163 15.9253C21.1351 15.7392 22.007 15.4143 22.7787 14.9506C23.536 14.5006 24.1718 13.8714 24.6306 13.118C25.0938 12.36 25.3255 11.4245 25.3257 10.3115C25.3257 9.04317 25.0093 7.92951 24.3764 6.97055C23.7345 6.0033 22.8978 5.18155 21.9202 4.55817C20.8927 3.89796 19.7677 3.40471 18.5867 3.09667C17.4016 2.77656 16.1799 2.61279 14.9526 2.6095C14.6688 2.6095 14.384 2.61849 14.0984 2.63648C14.7345 3.38861 15.2152 4.26007 15.5125 5.20017C16.4283 5.70839 17.2081 6.43097 17.7855 7.30641C18.4662 8.32714 18.8067 9.51861 18.807 10.8808C18.807 11.7777 18.6141 12.528 18.2284 13.1317C17.8597 13.7178 17.3606 14.2103 16.7702 14.5705C16.1918 14.9229 15.5578 15.1741 14.8953 15.3134C14.2948 15.4455 13.6823 15.5155 13.0676 15.5222L13.114 15.8932C14.1622 16.0481 15.0879 16.3731 15.8911 16.8684C16.6942 17.3636 17.357 17.967 17.8794 18.6786C18.3972 19.3769 18.8033 20.1519 19.083 20.9757C19.3546 21.7598 19.4954 22.5834 19.4998 23.4135C19.503 24.4542 19.2821 25.4834 18.8522 26.4307C18.4194 27.3894 17.7861 28.2394 16.9523 28.9807C16.1185 29.722 15.0918 30.3091 13.8723 30.7421C13.0494 31.0338 12.1458 31.227 11.1614 31.3219C12.434 34.1339 14.1432 35.6838 14.4625 35.9574C15.2919 35.85 16.1127 35.684 16.9188 35.4605C18.4767 35.0278 19.8654 34.3859 21.0846 33.5349C22.2797 32.7085 23.2818 31.632 24.022 30.3796C24.762 29.1264 25.1322 27.6798 25.1328 26.0397C25.1328 25.8228 25.0712 25.3046 24.948 24.4851C24.8248 23.6656 24.5013 22.7455 23.9775 21.7248Z" fill="url(#paint1_linear_119_209)"/>
<defs>
<linearGradient id="paint0_linear_119_209" x1="7.16598" y1="36" x2="7.16598" y2="0" gradientUnits="userSpaceOnUse">
<stop stop-color="#FF0C0A"/>
<stop offset="1" stop-color="#C00F22"/>
</linearGradient>
<linearGradient id="paint1_linear_119_209" x1="18.2428" y1="35.9555" x2="18.2428" y2="2.6095" gradientUnits="userSpaceOnUse">
<stop stop-color="#FF0C0A"/>
<stop offset="1" stop-color="#C00F22"/>
</linearGradient>
</defs>
</svg>
