<svg width="21" height="22" viewBox="0 0 21 22" fill="none" xmlns="http://www.w3.org/2000/svg">
<path fill-rule="evenodd" clip-rule="evenodd" d="M1.64064 11C1.64064 10.7389 1.74435 10.4885 1.92895 10.3039C2.11356 10.1193 2.36394 10.0156 2.62501 10.0156L15.9994 10.0156L12.4294 6.44561C12.2555 6.259 12.1608 6.01219 12.1653 5.75717C12.1698 5.50215 12.2732 5.25883 12.4535 5.07848C12.6339 4.89812 12.8772 4.79481 13.1322 4.79031C13.3872 4.78581 13.634 4.88048 13.8206 5.05436L19.0706 10.3044C19.255 10.4889 19.3585 10.7391 19.3585 11C19.3585 11.2608 19.255 11.511 19.0706 11.6956L13.8206 16.9456C13.634 17.1195 13.3872 17.2141 13.1322 17.2096C12.8772 17.2051 12.6339 17.1018 12.4535 16.9215C12.2732 16.7411 12.1698 16.4978 12.1653 16.2428C12.1608 15.9878 12.2555 15.741 12.4294 15.5544L15.9994 11.9844L2.62501 11.9844C2.36394 11.9844 2.11356 11.8806 1.92895 11.696C1.74435 11.5114 1.64064 11.2611 1.64064 11Z" fill="white"/>
</svg>
