<svg width="20" height="20" viewBox="0 0 20 20" fill="none" xmlns="http://www.w3.org/2000/svg">
<path d="M1.40795 15.8928C1.24165 16.0815 1.15 16.3351 1.15 16.5972C1.15 16.8594 1.24165 17.1129 1.40795 17.3017C1.57462 17.4908 1.80359 17.6 2.04545 17.6H17.9545C18.1964 17.6 18.4254 17.4908 18.592 17.3017C18.7584 17.1129 18.85 16.8594 18.85 16.5972C18.85 16.3351 18.7584 16.0815 18.592 15.8928C18.4254 15.7036 18.1964 15.5944 17.9545 15.5944H2.04545C1.80359 15.5944 1.57462 15.7036 1.40795 15.8928ZM1.40795 9.01775C1.24165 9.2065 1.15 9.46007 1.15 9.72222C1.15 9.98438 1.24165 10.2379 1.40795 10.4267C1.57462 10.6158 1.80359 10.725 2.04545 10.725H17.9545C18.1964 10.725 18.4254 10.6158 18.592 10.4267C18.7584 10.2379 18.85 9.98438 18.85 9.72222C18.85 9.46007 18.7584 9.2065 18.592 9.01775C18.4254 8.8286 18.1964 8.71944 17.9545 8.71944H2.04545C1.80359 8.71944 1.57462 8.8286 1.40795 9.01775ZM1.40795 2.69831C1.24165 2.88705 1.15 3.14062 1.15 3.40278C1.15 3.66493 1.24165 3.9185 1.40795 4.10725C1.57462 4.2964 1.80359 4.40556 2.04545 4.40556H17.9545C18.1964 4.40556 18.4254 4.2964 18.592 4.10725C18.7584 3.9185 18.85 3.66493 18.85 3.40278C18.85 3.14062 18.7584 2.88705 18.592 2.69831C18.4254 2.50915 18.1964 2.4 17.9545 2.4H2.04545C1.80359 2.4 1.57462 2.50915 1.40795 2.69831Z" fill="#1F2D45" stroke="#1F2D45" stroke-width="0.2"/>
</svg>
