<svg width="81" height="81" viewBox="0 0 81 81" fill="none" xmlns="http://www.w3.org/2000/svg">
<path d="M58.3 28.3906V26.65C58.3 18.8125 46.4781 12.9 30.8 12.9C15.1218 12.9 3.29997 18.8125 3.29997 26.65V39.15C3.29997 45.6782 11.5031 50.8657 23.3 52.4188V54.15C23.3 61.9875 35.1218 67.9 50.8 67.9C66.4781 67.9 78.3 61.9875 78.3 54.15V41.65C78.3 35.1813 70.3562 29.9875 58.3 28.3906ZM73.3 41.65C73.3 45.7813 63.6781 50.4 50.8 50.4C49.6343 50.4 48.4781 50.3594 47.3375 50.2844C54.0781 47.8282 58.3 43.8375 58.3 39.15V33.4438C67.6343 34.8344 73.3 38.6094 73.3 41.65ZM23.3 47.3531V39.9188C25.7868 40.2426 28.2922 40.4033 30.8 40.4C33.3078 40.4033 35.8131 40.2426 38.3 39.9188V47.3531C35.8169 47.72 33.31 47.9028 30.8 47.9C28.2899 47.9028 25.7831 47.72 23.3 47.3531ZM53.3 34.7531V39.15C53.3 41.7719 49.4218 44.5875 43.3 46.2969V38.9938C47.3343 38.0156 50.75 36.5594 53.3 34.7531ZM30.8 17.9C43.6781 17.9 53.3 22.5188 53.3 26.65C53.3 30.7813 43.6781 35.4 30.8 35.4C17.9218 35.4 8.29997 30.7813 8.29997 26.65C8.29997 22.5188 17.9218 17.9 30.8 17.9ZM8.29997 39.15V34.7531C10.85 36.5594 14.2656 38.0156 18.3 38.9938V46.2969C12.1781 44.5875 8.29997 41.7719 8.29997 39.15ZM28.3 54.15V52.8469C29.1218 52.8782 29.9531 52.9 30.8 52.9C32.0125 52.9 33.1968 52.8594 34.3593 52.7906C35.6508 53.2529 36.9663 53.6452 38.3 53.9657V61.2969C32.1781 59.5875 28.3 56.7719 28.3 54.15ZM43.3 62.3531V54.9C45.786 55.2342 48.2916 55.4012 50.8 55.4C53.3078 55.4033 55.8131 55.2426 58.3 54.9188V62.3531C53.3265 63.0821 48.2734 63.0821 43.3 62.3531ZM63.3 61.2969V53.9938C67.3344 53.0156 70.75 51.5594 73.3 49.7531V54.15C73.3 56.7719 69.4218 59.5875 63.3 61.2969Z" fill="#C21022"/>
</svg>
