<svg width="81" height="81" viewBox="0 0 81 81" fill="none" xmlns="http://www.w3.org/2000/svg">
<path d="M9.76663 47.0667H71.4333M30.9666 59.67V64.5667C30.9666 66.3348 30.2643 68.0305 29.014 69.2807C27.7638 70.5309 26.0681 71.2333 24.3 71.2333H22.3M50.2333 59.67V64.5667C50.2333 66.3348 50.9357 68.0305 52.1859 69.2807C53.4362 70.5309 55.1319 71.2333 56.9 71.2333H58.9M22.2933 71.2333H58.9066M9.76663 21.2333C9.76663 18.1391 10.9958 15.1717 13.1837 12.9837C15.3716 10.7958 18.3391 9.56665 21.4333 9.56665H59.7666C62.8608 9.56665 65.8283 10.7958 68.0162 12.9837C70.2041 15.1717 71.4333 18.1391 71.4333 21.2333V48.0033C71.4333 51.0975 70.2041 54.065 68.0162 56.2529C65.8283 58.4408 62.8608 59.67 59.7666 59.67H21.4333C18.3391 59.67 15.3716 58.4408 13.1837 56.2529C10.9958 54.065 9.76663 51.0975 9.76663 48.0033V21.2333Z" stroke="#C21022" stroke-width="4.6" stroke-linecap="round" stroke-linejoin="round"/>
</svg>
