<svg width="20" height="20" viewBox="0 0 20 20" fill="none" xmlns="http://www.w3.org/2000/svg">
<g clip-path="url(#clip0_98_1515)">
<path d="M16.17 4.70798L16.1701 4.70808L16.1726 4.70482C16.2909 4.54889 16.3487 4.3554 16.3354 4.16014C16.322 3.96487 16.2384 3.78104 16.1 3.64264C15.9482 3.49074 15.7421 3.40541 15.5273 3.40541C15.3125 3.40541 15.1065 3.49074 14.9546 3.64264L14.9546 3.64265L9.87239 8.72768L4.78875 3.64405L4.78885 3.64395L4.78575 3.64124L4.70868 3.57408L4.70877 3.57397L4.70551 3.57149C4.54198 3.44752 4.33749 3.39025 4.13335 3.41124C3.92922 3.43223 3.74067 3.52992 3.60579 3.68458C3.47092 3.83924 3.39977 4.03933 3.40674 4.24442C3.4137 4.44951 3.49826 4.64431 3.64332 4.78946L3.64333 4.78947L8.72628 9.87242L3.64473 14.9568L3.64464 14.9567L3.64194 14.9598L3.57477 15.0368L3.57467 15.0367L3.57219 15.04C3.44827 15.2035 3.39099 15.4078 3.4119 15.6119C3.43282 15.8159 3.53037 16.0045 3.68487 16.1394C3.83936 16.2743 4.0393 16.3456 4.2443 16.3388C4.44931 16.332 4.64411 16.2478 4.78939 16.103L4.78947 16.1029L9.8717 11.0178L14.9575 16.1036L14.9574 16.1037L14.9605 16.1064L15.0375 16.1736L15.0374 16.1737L15.0407 16.1762C15.2042 16.3001 15.4087 16.3574 15.6129 16.3364C15.817 16.3154 16.0055 16.2177 16.1404 16.0631C16.2753 15.9084 16.3464 15.7083 16.3395 15.5032C16.3325 15.2981 16.248 15.1033 16.1029 14.9582L11.0171 9.8724L16.1001 4.78805L16.1002 4.78815L16.1029 4.78505L16.17 4.70798Z" fill="#0B0C0F" stroke="#0B0C0F" stroke-width="0.12"/>
</g>
<defs>
<clipPath id="clip0_98_1515">
<rect width="20" height="20" fill="white"/>
</clipPath>
</defs>
</svg>
