<svg width="81" height="81" viewBox="0 0 81 81" fill="none" xmlns="http://www.w3.org/2000/svg">
<path d="M34.1248 67.8305C34.2587 67.8738 34.4047 67.8183 34.4759 67.6968L36.34 64.5183C36.3866 64.4388 36.3941 64.3422 36.3602 64.2564C36.3264 64.1706 36.255 64.1052 36.1666 64.0789C30.2687 62.3278 25.4217 58.9747 21.619 54.0128C17.8195 49.0549 15.9201 43.3884 15.9201 37.0024C15.9201 35.0728 16.1061 33.1697 16.4782 31.2927C16.8114 29.612 17.312 27.9876 17.9802 26.4193L23.0858 35.2455C23.1261 35.3151 23.1926 35.3657 23.2704 35.3858C23.3483 35.4059 23.4309 35.3939 23.4999 35.3526L26.6065 33.4886C26.7471 33.4042 26.7939 33.2228 26.7118 33.081L18.6308 19.1277C18.5478 18.9844 18.3644 18.9355 18.221 19.0184L4.24982 27.0994C4.10795 27.1815 4.05819 27.3622 4.13807 27.5053L5.86201 30.5941C5.90115 30.6642 5.96677 30.7157 6.04418 30.737C6.12159 30.7584 6.20434 30.7478 6.2739 30.7077L13.347 26.6268C12.8052 28.1553 12.4 29.714 12.1314 31.3029C11.8173 33.1608 11.6603 35.038 11.6603 36.9342C11.6603 44.204 13.7751 50.6489 18.006 56.2579C22.2323 61.8607 27.607 65.7207 34.1248 67.8305ZM55.4521 22.5428C55.4521 22.7085 55.5864 22.8428 55.7521 22.8428L71.9141 22.8464C71.9937 22.8464 72.07 22.8148 72.1263 22.7586C72.1825 22.7023 72.2142 22.626 72.2142 22.5464V6.3844C72.2142 6.21871 72.0798 6.0844 71.9142 6.0844H68.3226C68.1569 6.0844 68.0226 6.21871 68.0226 6.3844V14.887C65.02 11.6073 61.5296 9.06898 57.5528 7.27461C53.3421 5.37472 48.8727 4.4251 44.1478 4.4251C40.0225 4.4251 36.1393 5.14623 32.501 6.59042C28.8709 8.02991 25.6137 10.016 22.7309 12.5484C22.6236 12.6426 22.5976 12.7994 22.6687 12.9232L24.5327 16.1699C24.5785 16.2496 24.6583 16.304 24.7492 16.3174C24.8402 16.3307 24.9322 16.3017 24.999 16.2385C27.5195 13.8555 30.4118 11.9898 33.678 10.6411L33.678 10.6411C36.9437 9.29227 40.4553 8.61668 44.2159 8.61666C48.4961 8.61903 52.5599 9.52993 56.4105 11.3498C60.0721 13.0803 63.2037 15.5134 65.8071 18.6513H55.7521C55.5865 18.6513 55.4521 18.7856 55.4521 18.9513V22.5428ZM56.0966 76.3341C56.1654 76.3743 56.2473 76.3854 56.3243 76.3651C56.4013 76.3448 56.4671 76.2947 56.5071 76.2258L58.3029 73.1371C58.343 73.0681 58.354 72.9861 58.3335 72.9091C58.3129 72.832 58.2626 72.7663 58.1936 72.7265L51.132 68.6492C58.4339 67.104 64.4826 63.4472 69.2681 57.6839L69.2682 57.6839C74.2221 51.715 76.7 44.7871 76.7 36.9127C76.7 35.6442 76.6275 34.4086 76.4824 33.2062C76.3372 32.0012 76.117 30.8176 75.8216 29.6556C75.7878 29.5226 75.6681 29.4295 75.5309 29.4295H71.7813C71.6862 29.4295 71.5967 29.4746 71.5401 29.5511C71.4836 29.6275 71.4666 29.7263 71.4944 29.8172C71.8416 30.9534 72.098 32.1195 72.2635 33.3154C72.4291 34.5154 72.5121 35.7372 72.5121 36.9808C72.5097 44.1511 70.1513 50.3955 65.433 55.7276C60.8509 60.9057 55.1821 63.9992 48.4158 65.0142L53.7052 55.9883C53.7455 55.9195 53.7568 55.8374 53.7365 55.7603C53.7162 55.6832 53.6661 55.6173 53.5972 55.5772L50.5084 53.7814C50.3652 53.6982 50.1817 53.7467 50.0984 53.8899L42.0173 67.7713C41.9341 67.9143 41.9824 68.0978 42.1254 68.1813L56.0966 76.3341Z" fill="#C21022" stroke="#C21022" stroke-width="0.6" stroke-linejoin="round"/>
</svg>
