<svg width="80" height="81" viewBox="0 0 80 81" fill="none" xmlns="http://www.w3.org/2000/svg">
<path d="M7.49997 27.9H72.5M5.53434 29.8078L37.9953 71.911C38.2312 72.2185 38.5347 72.4676 38.8823 72.6391C39.23 72.8106 39.6124 72.8998 40 72.8998C40.3876 72.8998 40.77 72.8106 41.1176 72.6391C41.4652 72.4676 41.7687 72.2185 42.0047 71.911L74.4656 29.8078C74.7848 29.3923 74.9699 28.8894 74.9964 28.3661C75.0229 27.8428 74.8896 27.3238 74.614 26.8782L63.6031 9.10471C63.3764 8.7369 63.0595 8.43314 62.6823 8.22229C62.3052 8.01145 61.8805 7.90051 61.4484 7.90002H18.5515C18.1195 7.90051 17.6947 8.01145 17.3176 8.22229C16.9405 8.43314 16.6235 8.7369 16.3968 9.10471L5.38591 26.8782C5.11037 27.3238 4.97699 27.8428 5.00351 28.3661C5.03002 28.8894 5.21517 29.3923 5.53434 29.8078Z" stroke="#C21022" stroke-width="4.6" stroke-linecap="round" stroke-linejoin="round"/>
<path d="M62.5 10.4L55 27.9M55 27.9L40 7.90002L25 27.9M55 27.9L40 70.4L25 27.9M17.5 10.4L25 27.9" stroke="#C21022" stroke-width="4.6" stroke-linecap="round" stroke-linejoin="round"/>
</svg>
