<svg width="137" height="36" viewBox="0 0 137 36" fill="none" xmlns="http://www.w3.org/2000/svg">
<g clip-path="url(#clip0_1_369)">
<path d="M0.334906 3.15682C0.334906 3.15682 2.67886 0 6.56323 0C10.4476 0 14.3323 3.08879 14.3323 7.65667C14.3323 15.1116 8.23776 15.4474 8.23776 24.5817C8.23776 32.1711 12.9943 35.9984 12.9943 35.9984C12.9943 35.9984 0 36.2682 0 22.9028C0 15.3133 3.81731 13.6341 3.81731 7.72392C3.81731 4.02989 0.334906 3.15682 0.334906 3.15682Z" fill="url(#paint0_linear_1_369)"/>
<path d="M23.9775 21.7248C23.453 20.7038 22.6512 19.6831 21.572 18.6626C20.4928 17.6421 19.0124 16.8071 17.1309 16.1575V16.111C18.1453 16.1748 19.1638 16.1124 20.163 15.9253C21.1351 15.7392 22.007 15.4143 22.7787 14.9506C23.536 14.5006 24.1718 13.8714 24.6306 13.118C25.0938 12.36 25.3255 11.4245 25.3257 10.3115C25.3257 9.04317 25.0093 7.92951 24.3764 6.97055C23.7345 6.0033 22.8978 5.18155 21.9202 4.55817C20.8927 3.89796 19.7677 3.40471 18.5867 3.09667C17.4016 2.77656 16.1799 2.61279 14.9526 2.6095C14.6688 2.6095 14.384 2.61849 14.0984 2.63648C14.7345 3.38861 15.2152 4.26007 15.5125 5.20017C16.4283 5.70839 17.2081 6.43097 17.7855 7.30641C18.4662 8.32714 18.8067 9.51861 18.807 10.8808C18.807 11.7777 18.6141 12.528 18.2284 13.1317C17.8597 13.7178 17.3606 14.2103 16.7702 14.5705C16.1918 14.9229 15.5578 15.1741 14.8953 15.3134C14.2948 15.4455 13.6823 15.5155 13.0676 15.5222L13.114 15.8932C14.1622 16.0481 15.0879 16.3731 15.8911 16.8684C16.6942 17.3636 17.357 17.967 17.8794 18.6786C18.3972 19.3769 18.8033 20.1519 19.083 20.9757C19.3546 21.7598 19.4954 22.5834 19.4998 23.4135C19.503 24.4542 19.2821 25.4834 18.8522 26.4307C18.4194 27.3894 17.7861 28.2394 16.9523 28.9807C16.1185 29.722 15.0918 30.3091 13.8723 30.7421C13.0494 31.0338 12.1458 31.227 11.1614 31.3219C12.434 34.1339 14.1432 35.6838 14.4625 35.9574C15.2919 35.85 16.1127 35.684 16.9188 35.4605C18.4767 35.0278 19.8654 34.3859 21.0846 33.5349C22.2797 32.7085 23.2818 31.632 24.022 30.3796C24.762 29.1264 25.1322 27.6798 25.1328 26.0397C25.1328 25.8228 25.0712 25.3046 24.948 24.4851C24.8248 23.6656 24.5013 22.7455 23.9775 21.7248Z" fill="url(#paint1_linear_1_369)"/>
<path d="M44.7768 11.9935C45.8576 11.9935 46.791 12.1413 47.577 12.4369C48.3629 12.7325 48.9699 13.1583 49.3977 13.7143C49.8258 14.2702 50.0398 14.9283 50.0398 15.6883C50.0398 16.4906 49.8117 17.1839 49.3556 17.768C48.8994 18.3521 48.2783 18.7431 47.4923 18.941C48.4468 19.1234 49.1977 19.5492 49.7451 20.2183C50.2925 20.8874 50.5665 21.707 50.5673 22.6772C50.5673 23.5217 50.3392 24.2501 49.8831 24.8624C49.4269 25.4747 48.7843 25.9461 47.9551 26.2766C47.1268 26.6074 46.1443 26.7728 45.0076 26.7728H37.9976V11.9935H44.7768ZM44.6084 17.9686C45.226 17.9686 45.7172 17.8173 46.0822 17.5146C46.4471 17.212 46.629 16.7933 46.628 16.2584C46.628 15.7371 46.446 15.3324 46.0822 15.0444C45.7183 14.7564 45.227 14.6191 44.6084 14.6327H41.3241V17.9686H44.6084ZM44.6084 24.1336C45.3944 24.1336 46.012 23.9718 46.4611 23.648C46.9103 23.3243 47.1348 22.8668 47.1348 22.2757C47.1348 21.7267 46.9103 21.2904 46.4611 20.9667C46.012 20.6429 45.3944 20.4881 44.6084 20.5022H41.3241V24.1336H44.6084Z" fill="black"/>
<path d="M60.5245 20.1854C60.5104 19.6641 60.4016 19.2172 60.1981 18.8447C59.9971 18.4744 59.6937 18.1702 59.3244 17.9685C58.9454 17.7574 58.5103 17.6518 58.0191 17.6518C57.4717 17.6518 56.9945 17.7926 56.5875 18.0741C56.1804 18.3556 55.8646 18.7427 55.64 19.2353C55.4155 19.728 55.3032 20.298 55.3032 20.9455C55.3032 21.6774 55.4295 22.3038 55.6822 22.8246C55.9348 23.3454 56.2927 23.7465 56.7559 24.028C57.2191 24.3096 57.7519 24.4503 58.3544 24.4503C59.4492 24.4503 60.4036 24.0421 61.2177 23.2257L62.923 24.9148C62.353 25.5543 61.6432 26.0529 60.8492 26.3716C60.0281 26.7105 59.1054 26.8799 58.0811 26.8799C56.874 26.8799 55.8284 26.6406 54.9441 26.162C54.0799 25.7031 53.3668 25.0027 52.8914 24.1457C52.4077 23.279 52.1658 22.2756 52.1658 21.1355C52.1658 19.9673 52.4115 18.9507 52.9027 18.0858C53.3823 17.2319 54.0944 16.5325 54.9558 16.0695C55.833 15.591 56.8467 15.3446 57.9969 15.3306C59.3303 15.3306 60.4219 15.6086 61.2719 16.1645C62.1218 16.7205 62.7394 17.5017 63.1246 18.5081C63.5105 19.5145 63.6544 20.7074 63.5562 22.0868H54.84V20.1866L60.5245 20.1854Z" fill="black"/>
<path d="M66.0194 11.1067H69.2616V26.7727H66.0194V11.1067Z" fill="black"/>
<path d="M72.8193 11.1067H76.0615V26.7727H72.8193V11.1067ZM80.209 15.4349H83.8934L75.8705 23.8591V20.0376L80.209 15.4349ZM79.4722 19.4253L84.0829 26.7727H80.2512L77.0931 21.3677L79.4722 19.4253Z" fill="black"/>
<path d="M89.9565 21.8533C89.3389 21.8533 88.8757 21.9589 88.5669 22.17C88.2581 22.3811 88.1037 22.7196 88.1037 23.1854C88.1037 23.6358 88.2616 23.9912 88.5774 24.2516C88.8932 24.512 89.3248 24.6423 89.8722 24.6426C90.3494 24.6426 90.774 24.5617 91.146 24.3998C91.4985 24.2517 91.8146 24.0283 92.0723 23.7453C92.3149 23.4772 92.4725 23.1428 92.525 22.7846L93.0092 24.6004C92.6864 25.3604 92.1811 25.9375 91.4934 26.3316C90.8056 26.7258 89.9635 26.9228 88.9669 26.9228C88.1669 26.9228 87.4756 26.768 86.8932 26.4583C86.3107 26.1487 85.8615 25.7264 85.5457 25.1915C85.2297 24.6551 85.0717 24.0491 85.0717 23.3735C85.0717 22.3178 85.4436 21.4873 86.1875 20.8821C86.9314 20.2768 87.9981 19.9672 89.3876 19.9531H92.8404V21.8533H89.9565ZM92.5039 19.742C92.5039 19.1227 92.3039 18.6371 91.9039 18.2852C91.5039 17.9333 90.9179 17.7573 90.1459 17.7573C89.6406 17.7573 89.1003 17.8453 88.5248 18.0212C87.9183 18.2105 87.3327 18.4616 86.7774 18.7708L85.7668 16.6594C86.2976 16.3776 86.8462 16.1308 87.409 15.9205C87.9427 15.7233 88.4921 15.5715 89.0512 15.4665C89.6558 15.3571 90.2692 15.3041 90.8836 15.3082C92.4135 15.3082 93.5925 15.6671 94.4206 16.385C95.2487 17.1028 95.6697 18.0951 95.6838 19.3619L95.7048 26.7727H92.5258L92.5039 19.742Z" fill="black"/>
<path d="M105.031 11.9935C106.897 11.9935 108.346 12.4404 109.378 13.3342C110.41 14.228 110.926 15.4842 110.926 17.1029C110.926 18.8061 110.41 20.1327 109.378 21.0828C108.347 22.0329 106.897 22.5079 105.031 22.5079H100.652L102.104 21.0511V26.7728H98.7778V11.9935H105.031ZM104.862 19.8054C105.789 19.8054 106.504 19.5908 107.01 19.1615C107.515 18.7322 107.768 18.0812 107.768 17.2085C107.768 16.364 107.515 15.7306 107.01 15.3083C106.504 14.886 105.789 14.6749 104.862 14.6749H100.652L102.104 13.2181V21.2833L100.652 19.8054H104.862Z" fill="black"/>
<path d="M117.2 21.8533C116.582 21.8533 116.118 21.9589 115.81 22.17C115.502 22.3811 115.347 22.7196 115.347 23.1854C115.347 23.6358 115.505 23.9912 115.821 24.2516C116.136 24.512 116.568 24.6423 117.115 24.6426C117.592 24.6426 118.017 24.5617 118.389 24.3998C118.742 24.2515 119.058 24.0282 119.315 23.7453C119.558 23.477 119.715 23.1427 119.768 22.7846L120.252 24.6004C119.929 25.3604 119.424 25.9375 118.736 26.3317C118.049 26.7258 117.207 26.9228 116.21 26.9228C115.41 26.9228 114.719 26.768 114.136 26.4583C113.554 26.1487 113.105 25.7264 112.789 25.1915C112.473 24.6567 112.315 24.0514 112.315 23.3758C112.315 22.3201 112.687 21.4897 113.431 20.8844C114.175 20.2792 115.242 19.9695 116.631 19.9555H120.083V21.8556L117.2 21.8533ZM119.747 19.742C119.747 19.1227 119.547 18.6371 119.147 18.2852C118.747 17.9333 118.161 17.7573 117.389 17.7573C116.884 17.7573 116.343 17.8453 115.768 18.0213C115.161 18.2104 114.576 18.4616 114.021 18.7708L113.01 16.6595C113.541 16.3775 114.089 16.1306 114.652 15.9205C115.186 15.7232 115.735 15.5714 116.294 15.4666C116.899 15.3571 117.512 15.3041 118.127 15.3082C119.656 15.3082 120.835 15.6671 121.664 16.385C122.492 17.1028 122.913 18.0951 122.927 19.3619L122.948 26.7727H119.769L119.747 19.742Z" fill="black"/>
<path d="M131.452 28.0817C131.045 29.0529 130.498 29.7848 129.81 30.2775C129.122 30.7701 128.287 31.0164 127.305 31.0164C126.75 31.0221 126.198 30.9329 125.673 30.7525C125.151 30.5631 124.664 30.2884 124.231 29.9397L125.6 27.6817C126.091 28.0753 126.582 28.2724 127.073 28.2729C127.388 28.2795 127.697 28.1872 127.958 28.009C128.21 27.8328 128.414 27.5689 128.568 27.2172L128.884 26.5416L124.189 15.4376H127.536L130.505 23.3746L133.179 15.4376H136.421L131.452 28.0817Z" fill="black"/>
</g>
<defs>
<linearGradient id="paint0_linear_1_369" x1="7.16598" y1="36" x2="7.16598" y2="0" gradientUnits="userSpaceOnUse">
<stop stop-color="#FF0C0A"/>
<stop offset="1" stop-color="#C00F22"/>
</linearGradient>
<linearGradient id="paint1_linear_1_369" x1="18.2428" y1="35.9555" x2="18.2428" y2="2.6095" gradientUnits="userSpaceOnUse">
<stop stop-color="#FF0C0A"/>
<stop offset="1" stop-color="#C00F22"/>
</linearGradient>
<clipPath id="clip0_1_369">
<rect width="136.421" height="36" fill="white"/>
</clipPath>
</defs>
</svg>
