<svg width="22" height="23" viewBox="0 0 22 23" fill="none" xmlns="http://www.w3.org/2000/svg">
<path d="M7.33332 3.5498C7.79166 3.5498 9.62499 7.6748 9.62499 8.13314C9.62499 9.0498 8.24999 9.96647 7.79166 10.8831C7.33332 11.7998 8.24999 12.7165 9.16666 13.6331C9.52416 13.9906 11 15.4665 11.9167 15.0081C12.8333 14.5498 13.75 13.1748 14.6667 13.1748C15.125 13.1748 19.25 15.0081 19.25 15.4665C19.25 17.2998 17.875 18.6748 16.5 19.1331C15.125 19.5915 14.2083 19.5915 12.375 19.1331C10.5417 18.6748 9.16666 18.2165 6.87499 15.9248C4.58332 13.6331 4.12499 12.2581 3.66666 10.4248C3.20832 8.59147 3.20832 7.6748 3.66666 6.2998C4.12499 4.9248 5.49999 3.5498 7.33332 3.5498Z" stroke="white" stroke-opacity="0.56" stroke-width="1.72" stroke-linecap="round" stroke-linejoin="round"/>
</svg>
