<svg width="22" height="22" viewBox="0 0 22 22" fill="none" xmlns="http://www.w3.org/2000/svg">
<path d="M7.33332 2.75C7.79166 2.75 9.62499 6.875 9.62499 7.33333C9.62499 8.25 8.24999 9.16667 7.79166 10.0833C7.33332 11 8.24999 11.9167 9.16666 12.8333C9.52416 13.1908 11 14.6667 11.9167 14.2083C12.8333 13.75 13.75 12.375 14.6667 12.375C15.125 12.375 19.25 14.2083 19.25 14.6667C19.25 16.5 17.875 17.875 16.5 18.3333C15.125 18.7917 14.2083 18.7917 12.375 18.3333C10.5417 17.875 9.16666 17.4167 6.87499 15.125C4.58332 12.8333 4.12499 11.4583 3.66666 9.625C3.20832 7.79167 3.20832 6.875 3.66666 5.5C4.12499 4.125 5.49999 2.75 7.33332 2.75Z" stroke="#C00F22" stroke-width="1.72" stroke-linecap="round" stroke-linejoin="round"/>
</svg>
