<svg width="81" height="81" viewBox="0 0 81 81" fill="none" xmlns="http://www.w3.org/2000/svg">
<path fill-rule="evenodd" clip-rule="evenodd" d="M40.39 4.56665H40.01C32.3133 4.56665 26.2833 4.56665 21.5766 5.19998C16.7633 5.84665 12.9633 7.19998 9.97997 10.18C6.99664 13.1633 5.64664 16.9633 4.99997 21.78C4.36664 26.4833 4.36664 32.5133 4.36664 40.21V40.59C4.36664 48.2867 4.36664 54.3167 4.99997 59.0233C5.64664 63.8367 6.99997 67.6367 9.97997 70.62C12.9633 73.6033 16.7633 74.9533 21.58 75.6C26.2833 76.2333 32.3133 76.2333 40.01 76.2333H40.39C48.0866 76.2333 54.1166 76.2333 58.8233 75.6C63.6366 74.9533 67.4366 73.6 70.42 70.62C73.4033 67.6367 74.7533 63.8367 75.4 59.02C76.0333 54.3167 76.0333 48.2867 76.0333 40.59V40.21C76.0333 32.5133 76.0333 26.4833 75.4 21.7767C74.7533 16.9633 73.4 13.1633 70.42 10.18C67.4366 7.19665 63.6366 5.84665 58.82 5.19998C54.1166 4.56665 48.0866 4.56665 40.39 4.56665ZM13.5166 13.7167C15.4166 11.8167 17.9833 10.7267 22.2466 10.1533C26.58 9.57332 32.2733 9.56665 40.2 9.56665C48.1266 9.56665 53.82 9.57332 58.1533 10.1533C62.4166 10.7267 64.9866 11.82 66.8866 13.7167C68.7833 15.6167 69.8733 18.1833 70.4466 22.4467C71.0266 26.78 71.0333 32.4733 71.0333 40.4C71.0333 48.3267 71.0266 54.02 70.4466 58.3533C69.8733 62.6167 68.78 65.1867 66.8833 67.0867C64.9833 68.9833 62.4166 70.0733 58.1533 70.6467C53.82 71.2267 48.1266 71.2333 40.2 71.2333C32.2733 71.2333 26.58 71.2267 22.2466 70.6467C17.9833 70.0733 15.4133 68.98 13.5133 67.0833C11.6166 65.1833 10.5266 62.6167 9.95331 58.3533C9.37331 54.02 9.36664 48.3267 9.36664 40.4C9.36664 32.4733 9.37331 26.78 9.95331 22.4467C10.5266 18.1833 11.62 15.6167 13.5166 13.7167ZM54.84 14.9533C51.95 14.5633 48.2733 14.5633 43.7166 14.5633H36.6833C32.1266 14.5633 28.45 14.5633 25.56 14.9533C22.56 15.3533 20.0333 16.22 18.0266 18.2233C17.1319 19.117 16.4148 20.1723 15.9133 21.3333C15.5399 21.2221 15.1456 21.1998 14.7621 21.268C14.3785 21.3363 14.0161 21.4932 13.704 21.7264C13.3918 21.9595 13.1385 22.2624 12.9641 22.6109C12.7898 22.9593 12.6994 23.3437 12.7 23.7333V33.7333C12.7 34.2502 12.8604 34.7544 13.1588 35.1765C13.4573 35.5985 13.8793 35.9177 14.3666 36.09V44.71C13.8793 44.8823 13.4573 45.2014 13.1588 45.6235C12.8604 46.0455 12.7 46.5497 12.7 47.0667V57.0667C12.6994 57.4563 12.7898 57.8406 12.9641 58.1891C13.1385 58.5375 13.3918 58.8404 13.704 59.0736C14.0161 59.3067 14.3785 59.4637 14.7621 59.5319C15.1456 59.6002 15.5399 59.5778 15.9133 59.4667C16.4166 60.6067 17.1 61.6467 18.0266 62.5733C20.0333 64.58 22.56 65.44 25.56 65.8467C28.45 66.2333 32.1266 66.2333 36.6833 66.2333H43.7166C48.2733 66.2333 51.95 66.2333 54.84 65.8467C57.84 65.44 60.3666 64.58 62.3733 62.5733C64.38 60.5667 65.24 58.04 65.6466 55.04C66.0333 52.15 66.0333 48.4733 66.0333 43.9167V36.8833C66.0333 32.3267 66.0333 28.65 65.6466 25.76C65.24 22.76 64.38 20.2333 62.3733 18.2267C60.3666 16.22 57.84 15.3567 54.84 14.9533ZM21.5633 21.7633C22.4866 20.84 23.78 20.24 26.23 19.91C28.7433 19.5733 32.0833 19.5667 36.8666 19.5667H43.5333C48.3166 19.5667 51.6566 19.5733 54.1733 19.91C56.62 20.24 57.9133 20.8433 58.8366 21.7633C59.76 22.6867 60.36 23.98 60.69 26.43C61.0266 28.9433 61.0333 32.2833 61.0333 37.0667V43.7333C61.0333 48.5167 61.0266 51.8567 60.69 54.3733C60.36 56.82 59.7566 58.1133 58.8366 59.0367C57.9133 59.96 56.62 60.56 54.17 60.89C51.6566 61.2267 48.3166 61.2333 43.5333 61.2333H36.8666C32.0833 61.2333 28.7433 61.2267 26.2266 60.89C23.78 60.56 22.4866 59.9566 21.5633 59.0367C20.64 58.1133 20.04 56.82 19.71 54.37C19.3733 51.8567 19.3666 48.5167 19.3666 43.7333V37.0667C19.3666 32.2833 19.3733 28.9433 19.71 26.4267C20.04 23.98 20.6433 22.6867 21.5633 21.7633ZM40.2 24.5667C36.0007 24.5667 31.9734 26.2348 29.0041 29.2041C26.0348 32.1735 24.3666 36.2007 24.3666 40.4C24.3666 44.5992 26.0348 48.6265 29.0041 51.5958C31.9734 54.5652 36.0007 56.2333 40.2 56.2333C44.3992 56.2333 48.4265 54.5652 51.3958 51.5958C54.3652 48.6265 56.0333 44.5992 56.0333 40.4C56.0333 36.2007 54.3652 32.1735 51.3958 29.2041C48.4265 26.2348 44.3992 24.5667 40.2 24.5667ZM40.2 51.2333C36.6333 51.2333 33.4666 49.51 31.4966 46.85L37.2033 44.4033C38.0366 45.03 39.0766 45.4 40.2 45.4C41.3233 45.4 42.36 45.03 43.1966 44.4033L48.9033 46.85C47.8958 48.2096 46.5837 49.3143 45.0723 50.0755C43.5609 50.8367 41.8922 51.2332 40.2 51.2333ZM37.7 29.8567C35.0138 30.4927 32.6717 32.1302 31.152 34.4348C29.6324 36.7393 29.0498 39.5371 29.5233 42.2567L35.2333 39.8067C35.3258 39.0349 35.5968 38.2954 36.025 37.6468C36.4532 36.9981 37.0267 36.4583 37.7 36.07V29.8567ZM51.0333 40.4C51.0333 41.0333 50.9811 41.6511 50.8766 42.2533L45.1666 39.8067C45.0742 39.0349 44.8031 38.2954 44.3749 37.6468C43.9468 36.9981 43.3733 36.4583 42.7 36.07V29.8567C45.073 30.4195 47.1868 31.7666 48.6991 33.68C50.2114 35.5934 51.0338 37.9611 51.0333 40.4Z" fill="#C21022"/>
</svg>
